<svg width="132" height="90" viewBox="0 0 132 90" fill="none" xmlns="http://www.w3.org/2000/svg">
<path d="M40.939 20.5554C41.3049 19.9284 41.7805 19.3258 42.4634 19.0307C42.7439 18.9816 43.0244 19.0061 43.3049 19.0061H57.1098C56.7073 19.3504 56.3171 19.707 56.0488 20.1743C55.3415 21.3424 54.8659 22.6458 54.4268 23.9492C53.1829 27.8839 52.3171 31.9293 51.4756 35.9747C51.0976 37.8068 50.7317 39.6512 50.3902 41.4833C49.3415 47.4838 48.2561 53.4719 46.9024 59.4109C46.2561 62.1529 45.5976 64.895 44.5976 67.5386C44.1341 68.633 43.6829 69.8011 42.7927 70.6126C42.5854 70.7971 42.3781 71.0307 42.0854 70.9938H29.8902C29.061 70.9692 28.2439 71.043 27.4146 70.9569C27.9634 70.5266 28.4512 70.0101 28.7683 69.3953C29.6829 67.637 30.2561 65.7311 30.8049 63.8375C31.6585 60.7881 32.3415 57.7018 32.9878 54.6155C33.3902 52.5866 33.8659 50.5701 34.1585 48.5289C34.4878 46.2542 34.9878 44.004 35.3902 41.7415C36.0244 38.4093 36.6951 35.0771 37.439 31.7694C38.0366 29.1873 38.6463 26.6174 39.4634 24.0967C39.8659 22.8794 40.3049 21.6744 40.939 20.5554Z" fill="white"/>
<path d="M57.1098 19.0061C57.4634 19.0061 57.8171 18.9939 58.1707 19.0061C58.9512 19.4242 59.6098 20.0882 59.9756 20.912C60.4634 21.8465 60.8659 22.8302 61.2317 23.8385C62.4512 27.638 63.2805 31.5481 64.1098 35.446C64.8171 38.938 65.4878 42.4424 66.1219 45.9591C66.1707 46.1435 66.1098 46.4017 66.3537 46.4509C65.4756 51.0742 64.6098 55.7098 63.5122 60.2962C62.9146 62.7678 62.2805 65.227 61.378 67.6124C60.8902 68.8051 60.3902 70.1085 59.3537 70.9569C58.6951 71.1045 58.2195 70.6003 57.8171 70.1454C57.122 69.2478 56.6951 68.1903 56.2805 67.1328C54.9024 63.3457 54.061 59.3986 53.2073 55.4639C52.561 52.4022 51.9878 49.3159 51.3902 46.2419C51.122 44.6803 50.7561 43.1433 50.5488 41.5817C50.5122 41.5571 50.4268 41.5079 50.3902 41.4833C50.7317 39.6512 51.0976 37.8068 51.4756 35.9747C52.3171 31.9293 53.1829 27.8839 54.4268 23.9492C54.8659 22.6458 55.3415 21.3424 56.0488 20.1743C56.3171 19.707 56.7073 19.3504 57.1098 19.0061Z" fill="white"/>
<path d="M72.3658 21.1334C72.8049 20.2849 73.3415 19.3381 74.2927 19.0184C79.1341 18.9939 83.9756 19.0061 88.8171 19.0061C88.3659 19.4611 87.8902 19.9161 87.5854 20.494C86.6463 22.1908 86.0976 24.0721 85.5366 25.9288C84.0976 31.044 83.0854 36.2698 82.122 41.4956C81.2317 46.6476 80.2805 51.7997 79.1951 56.9271C78.6341 59.5093 78.0488 62.0792 77.3049 64.6245C76.8293 66.1983 76.3293 67.7845 75.5488 69.2478C75.1707 69.9118 74.7317 70.6372 74.0122 70.9815C69.3902 71.0184 64.7561 70.9815 60.1341 70.9938C59.878 70.9938 59.6098 70.9938 59.3537 70.9569C60.3902 70.1085 60.8902 68.8051 61.378 67.6124C62.2805 65.227 62.9146 62.7678 63.5122 60.2962C64.6098 55.7098 65.4756 51.0742 66.3537 46.4509C67.4146 40.4873 68.5244 34.5237 69.939 28.6339C70.5976 26.0887 71.2317 23.5065 72.3658 21.1334Z" fill="white"/>
<path d="M88.8171 19.0061C89.2073 19.0061 89.6098 18.9939 90 19.0061C90.6341 19.3381 91.0854 19.9038 91.4878 20.4817C92.1463 21.5391 92.561 22.7318 92.9878 23.9C94 27.0355 94.7561 30.257 95.4512 33.4786C96.3781 37.8191 97.1829 42.1842 97.9756 46.5493C98.1707 47.5944 98.3659 48.6519 98.4878 49.7094C98.5366 49.7585 98.6341 49.8569 98.6707 49.8938C98.2317 50.5086 98.061 51.2464 97.8171 51.9472C97.0488 54.4433 96.5488 57.0255 96.122 59.5954C95.7927 61.6119 95.3415 63.6162 94.7195 65.559C94.2561 66.9976 93.6951 68.4239 92.7683 69.6289C92.3293 70.2069 91.7317 70.6495 91.0732 70.9446C90.061 71.0553 89.4634 70.0716 88.9756 69.3461C87.9634 67.5632 87.4146 65.5712 86.8293 63.6285C84.9024 56.4353 83.6463 49.07 82.2927 41.7538C82.2805 41.6432 82.2195 41.5448 82.122 41.4956C83.0854 36.2698 84.0976 31.044 85.5366 25.9288C86.0976 24.0721 86.6463 22.1908 87.5854 20.494C87.8902 19.9161 88.3659 19.4611 88.8171 19.0061Z" fill="white"/>
<path d="M16 46.9796C16.3171 46.955 16.6341 46.9059 16.9634 46.9059H30.2561C30.8171 46.9796 31.4024 46.9305 31.939 47.1764C32.7195 47.4961 33.4146 48.0371 33.9268 48.7134C33.9878 48.6765 34.0976 48.5781 34.1585 48.5289C33.8659 50.5701 33.3902 52.5866 32.9878 54.6155C32.3415 57.7018 31.6585 60.7881 30.8049 63.8375C30.2561 65.7311 29.6829 67.637 28.7683 69.3953C28.4512 70.0101 27.9634 70.5266 27.4146 70.9569C27.2073 70.9938 27.0488 70.8462 26.878 70.7356C26.3049 70.3667 25.9756 69.7273 25.622 69.1494C23.9512 65.313 23.7683 61.0709 22.7317 57.0624C22.2073 55.0581 21.561 53.0662 20.6098 51.2218C20.0244 50.1151 19.3049 49.0577 18.3659 48.2092C17.6707 47.6436 16.8659 47.1887 16 46.9796Z" fill="white"/>
<path d="M99.7439 48.2584C100.512 47.3854 101.659 46.8321 102.817 46.8813H112.817C114.207 46.9059 115.61 46.8321 117 46.9182C116.585 47.201 116.085 47.3116 115.646 47.5453C114.122 48.2461 112.817 49.4143 111.988 50.8775C110.659 53.2137 110.195 55.8943 109.805 58.5256C109.415 61.1078 109.427 63.776 108.598 66.2844C108.037 68.0428 107.183 69.8134 105.707 70.9692C101.122 71.0184 96.5366 70.9815 91.9634 70.9938C91.6585 70.9938 91.3659 71.0061 91.0732 70.9446C91.7317 70.6495 92.3293 70.2069 92.7683 69.6289C93.6951 68.4239 94.2561 66.9976 94.7195 65.559C95.3415 63.6162 95.7927 61.6119 96.122 59.5954C96.5488 57.0255 97.0488 54.4433 97.8171 51.9472C98.061 51.2464 98.2317 50.5086 98.6707 49.8938C99.0366 49.3528 99.2805 48.7257 99.7439 48.2584Z" fill="white"/>
</svg>
