<svg width="125" height="65" viewBox="0 0 125 65"  xmlns="http://www.w3.org/2000/svg">
<path fill-rule="evenodd" clip-rule="evenodd" d="M32.5031 1.08288C31.6813 1.439 31.1053 2.16465 30.6587 2.92811C29.8826 4.29394 29.3448 5.76569 28.851 7.25562C27.8486 10.3401 27.1004 13.4851 26.3667 16.647C25.4536 20.6966 24.6302 24.7763 23.8518 28.8563C23.6722 29.863 23.4771 30.8669 23.2819 31.8704C22.9396 33.6316 22.5973 35.3919 22.3399 37.1658C22.3399 37.1658 22.3399 37.1658 22.3399 37.1658L22.2471 37.1524C22.248 37.1464 22.2488 37.1403 22.2497 37.1343C22.5071 35.3647 22.849 33.6059 23.1906 31.849C23.3856 30.8458 23.5805 29.8432 23.7595 28.8395C24.5382 24.7588 25.3618 20.6773 26.2753 16.6263C27.0089 13.4644 27.758 10.3154 28.7618 7.2266C29.2561 5.73542 29.7963 4.25593 30.5773 2.88154C31.0281 2.11086 31.6187 1.36195 32.471 0.994596L32.4813 0.990177L32.4815 0.991468C32.7447 0.945433 33.0095 0.95124 33.2689 0.956928C33.3542 0.958797 33.4388 0.960654 33.5227 0.960654H50.4712C50.6148 0.960654 50.7589 0.95899 50.9034 0.957322C51.1935 0.953972 51.4849 0.950608 51.7754 0.960682L51.7863 0.961059L51.7959 0.966184C52.7619 1.4823 53.578 2.30228 54.0319 3.32095C54.6318 4.46739 55.1265 5.67359 55.5759 6.90886L55.5765 6.91052C57.065 11.5361 58.0801 16.2953 59.0917 21.0377L59.1111 21.1288C59.9795 25.4047 60.803 29.6961 61.5815 34.0021C61.5972 34.0622 61.604 34.1273 61.61 34.1886L61.6109 34.1984C61.6167 34.2581 61.6221 34.314 61.6338 34.3651C61.646 34.4185 61.6642 34.4625 61.6933 34.4961C61.7143 34.5204 61.7427 34.5412 61.783 34.5558C63.0829 27.2699 64.4433 19.9832 66.1764 12.7861C66.2232 12.606 66.27 12.4248 66.3167 12.2444C67.077 9.30449 67.8451 6.33472 69.1592 3.59212L69.1599 3.59079C69.6975 2.55452 70.3638 1.37651 71.5522 0.978141L71.5593 0.975749L71.5669 0.975711C76.025 0.953125 80.4832 0.955948 84.9412 0.958772C86.4271 0.959713 87.9131 0.960654 89.399 0.960654C89.5571 0.960654 89.7174 0.958999 89.8785 0.957337C90.2035 0.953982 90.5319 0.950592 90.8528 0.960677L90.8635 0.961014L90.873 0.965977C91.6624 1.37816 92.2218 2.07917 92.7164 2.78752L92.7178 2.7895C93.4745 4.00161 93.9697 5.35785 94.4575 6.69395C94.4929 6.79077 94.5282 6.8875 94.5635 6.98405L94.5642 6.98573C95.8076 10.8275 96.7362 14.7743 97.5897 18.7196C98.7278 24.0354 99.7161 29.3814 100.689 34.7266C100.928 36.0008 101.167 37.2918 101.317 38.5831L101.489 38.7568C101.635 38.5375 101.765 38.308 101.895 38.077C101.953 37.9752 102.011 37.8732 102.07 37.7717C102.272 37.4248 102.492 37.086 102.78 36.7958C103.731 35.7184 105.151 35.0341 106.588 35.0946H118.864C119.512 35.1061 120.164 35.1001 120.816 35.0941C121.879 35.0844 122.945 35.0746 124.003 35.1399L124.14 35.1483L124.026 35.2254C123.767 35.4017 123.482 35.5237 123.197 35.6368C123.15 35.6558 123.102 35.6745 123.054 35.6932C122.817 35.7862 122.582 35.8782 122.36 35.996L122.357 35.9973C120.494 36.8516 118.9 38.2753 117.887 40.0582C116.26 42.9104 115.692 46.1846 115.213 49.4073C115.058 50.4308 114.954 51.4643 114.851 52.4999C114.795 53.0631 114.739 53.6269 114.674 54.1901C114.49 55.787 114.239 57.3754 113.729 58.9157C113.039 61.072 111.987 63.2509 110.164 64.6749L110.152 64.6847L110.136 64.6848C106.553 64.7232 102.97 64.7188 99.3906 64.7145C97.3461 64.712 95.3029 64.7095 93.262 64.715C93.2088 64.715 93.1556 64.7153 93.1026 64.7156C92.7881 64.7174 92.4772 64.7193 92.1666 64.6552C91.5302 64.7221 91.0254 64.4464 90.6075 64.047C90.2328 63.689 89.9238 63.2275 89.6491 62.8173C89.6172 62.7696 89.5858 62.7227 89.5548 62.6767L89.5528 62.6737C88.4177 60.6795 87.7564 58.4726 87.1047 56.2983C87.0411 56.086 86.9776 55.874 86.9137 55.6626L86.9133 55.6612C84.8588 48.0115 83.4253 40.2028 81.9956 32.4148C81.7786 31.233 81.5617 30.0516 81.3428 28.8713L81.3422 28.8679C81.3313 28.7693 81.2855 28.6814 81.2134 28.6239C80.1239 34.91 78.9596 41.1962 77.6318 47.4527C76.943 50.6148 76.224 53.7633 75.3102 56.8818C74.7264 58.8088 74.1113 60.7558 73.1506 62.5521L73.1499 62.5532C72.6868 63.3646 72.1414 64.2665 71.2429 64.6953L71.2335 64.6998L71.2231 64.6999C67.8182 64.727 64.4076 64.7216 60.9982 64.7162C58.7257 64.7125 56.4537 64.7089 54.1845 64.715H54.1826C53.8721 64.715 53.5431 64.715 53.2279 64.6705C52.8118 64.7609 52.4536 64.6469 52.1394 64.442C51.8246 64.2367 51.5512 63.9384 51.3045 63.6603L51.3025 63.658C50.4444 62.5527 49.9183 61.2516 49.4095 59.9574L49.4091 59.9563C47.759 55.4333 46.7352 50.7247 45.7143 46.029C45.6876 45.9064 45.661 45.7838 45.6343 45.6612C45.0436 42.8701 44.5025 40.0619 43.962 37.2564C43.7763 36.2929 43.5908 35.3297 43.4032 34.3675L43.4031 34.3665C43.2766 33.6323 43.1321 32.9009 42.9877 32.1699C42.7583 31.0089 42.5291 29.8487 42.3726 28.6796C42.3515 28.6662 42.3235 28.6493 42.2946 28.6319L42.2935 28.6312C42.2808 28.6236 42.268 28.6158 42.2557 28.6083C40.9718 35.9332 39.6422 43.2439 37.9852 50.4949C37.1917 53.8523 36.3825 57.2132 35.1535 60.4537L35.1529 60.4554C35.1137 60.5476 35.0746 60.6403 35.0354 60.7333C34.5059 61.9888 33.9516 63.3029 32.9254 64.236C32.8952 64.2628 32.8642 64.2912 32.833 64.3197C32.736 64.4087 32.634 64.5022 32.525 64.5753C32.3799 64.6726 32.216 64.7384 32.0226 64.715H17.0532L17.0518 64.7149C16.6649 64.7035 16.2805 64.7095 15.8954 64.7155C15.7751 64.7174 15.6546 64.7193 15.534 64.7206C15.0304 64.7262 14.5251 64.7225 14.0154 64.6702C13.8769 64.6929 13.7559 64.6549 13.6457 64.5966C13.5734 64.5583 13.5015 64.5086 13.4322 64.4607C13.3973 64.4365 13.363 64.4129 13.3297 64.3913M22.0195 37.3216C22.0491 37.3003 22.0845 37.272 22.1214 37.2416C22.1433 37.2235 22.1658 37.2046 22.1873 37.1864C22.2098 37.1675 22.2312 37.1495 22.2497 37.1343M14.134 64.5874C14.6014 64.6292 15.0664 64.6321 15.533 64.6269C15.6527 64.6255 15.7725 64.6236 15.8925 64.6218C16.2779 64.6158 16.665 64.6097 17.0539 64.6212H32.0313C32.1959 64.6419 32.338 64.5878 32.4728 64.4974C32.5753 64.4287 32.6698 64.3421 32.7655 64.2544C32.7976 64.225 32.8298 64.1954 32.8625 64.1664C33.8726 63.2479 34.4192 61.9526 34.9507 60.6929C34.9892 60.6015 35.0277 60.5104 35.0662 60.4196C36.2925 57.1859 37.1003 53.8314 37.8938 50.4737C39.5554 43.2026 40.8878 35.871 42.1754 28.5234C42.5946 26.2796 43.044 24.0203 43.5082 21.7765C44.5412 16.823 45.6047 11.867 47.1326 7.04624C47.6717 5.45016 48.2572 3.84912 49.1283 2.41401C49.4404 1.87214 49.8844 1.45138 50.3446 1.0544H33.5227C33.4343 1.0544 33.3467 1.0525 33.2598 1.0506C33.0046 1.04504 32.7546 1.03959 32.5031 1.08288M50.4885 1.0544C49.9993 1.47236 49.5314 1.90182 49.2093 2.46132L49.2087 2.46226C48.3433 3.88772 47.7608 5.47924 47.2219 7.07491C45.6956 11.8904 44.633 16.8418 43.6 21.7955M53.3386 64.59C53.6168 64.6211 53.9048 64.6212 54.1842 64.6212C56.4543 64.6152 58.7265 64.6188 60.9991 64.6224C64.4044 64.6278 67.8107 64.6332 71.2119 64.6062C72.0744 64.1902 72.6048 63.319 73.0682 62.5073C74.0238 60.7203 74.6364 58.7824 75.2203 56.8552C76.1331 53.7402 76.8514 50.5949 77.5401 47.4333C78.8724 41.1553 80.0402 34.8471 81.1331 28.5386C82.3159 22.1394 83.559 15.7378 85.3264 9.47184C85.3556 9.37553 85.385 9.2783 85.4141 9.18188C86.073 7.00355 86.7389 4.80185 87.8456 2.80719C88.1946 2.14749 88.7236 1.61773 89.237 1.10366C89.2534 1.08723 89.2698 1.07081 89.2861 1.0544C87.8377 1.05436 86.3893 1.05344 84.9409 1.05252C80.4855 1.0497 76.0302 1.04688 71.5749 1.06942C70.4323 1.45624 69.7826 2.59404 69.2434 3.6333C67.9336 6.3672 67.1677 9.32846 66.4068 12.2702C66.3604 12.4497 66.314 12.6292 66.2675 12.8085C64.5311 20.0191 63.1689 27.3204 61.8663 34.6228C61.805 34.9446 61.7437 35.2671 61.6824 35.5891C60.6664 40.9298 59.6484 46.2814 58.3772 51.5795C57.6435 54.6061 56.8644 57.6201 55.7553 60.5441L55.7549 60.5452C55.7283 60.61 55.7017 60.6751 55.675 60.7404C55.1142 62.1124 54.5106 63.5889 53.3386 64.59ZM55.6679 60.5102C56.7746 57.5924 57.5525 54.5837 58.2861 51.5576C59.5567 46.2619 60.5743 40.9124 61.5904 35.5713C61.6489 35.2638 61.7074 34.9564 61.7659 34.649C61.7048 34.6296 61.6578 34.5984 61.6224 34.5574C61.5794 34.5078 61.5564 34.4473 61.5424 34.3859C61.5294 34.3288 61.5234 34.2673 61.5178 34.2093L61.5167 34.1977C61.5105 34.1349 61.5042 34.0765 61.4904 34.0243L61.4894 34.0206C60.711 29.7148 59.8877 25.4241 59.0194 21.1484C59.0194 21.1482 59.0195 21.1485 59.0194 21.1484L59.0005 21.0595C57.9887 16.3159 56.9744 11.5609 55.4875 6.94014C55.0388 5.70683 54.5456 4.50465 53.9482 3.36308L53.9468 3.36045C53.5038 2.36547 52.7071 1.56183 51.7613 1.054C51.4765 1.04446 51.1926 1.04774 50.9074 1.05104C50.7682 1.05266 50.6286 1.05427 50.4885 1.0544M14.134 64.5874C14.7741 64.0723 15.3419 63.4585 15.7174 62.7322ZM13.9944 64.5786C14.6608 64.0558 15.2507 63.4307 15.6341 62.6892C16.7546 60.5408 17.4572 58.2111 18.131 55.8922C19.1786 52.1597 20.0168 48.3818 20.8102 44.6029C20.9523 43.8886 21.1017 43.1761 21.2509 42.464C21.6129 40.737 21.9744 39.0127 22.2295 37.2735C22.2139 37.2866 22.1977 37.3002 22.1811 37.3138C22.1291 37.3568 22.0741 37.4005 22.0332 37.4251L21.9972 37.4469L21.9717 37.4133C21.3478 36.5917 20.5011 35.9345 19.5508 35.5463L19.5491 35.5455C19.2266 35.3981 18.8882 35.3385 18.5421 35.3049C18.3999 35.291 18.257 35.2816 18.1135 35.2721C18.0824 35.2701 18.0512 35.268 18.02 35.2659C17.8464 35.2542 17.6721 35.241 17.4993 35.2185H1.18264C0.913231 35.2185 0.652463 35.2453 0.391124 35.2722C0.350293 35.2764 0.309448 35.2806 0.268555 35.2847C1.2418 35.5658 2.1458 36.0916 2.93399 36.7313L2.93587 36.7328C4.09417 37.7766 4.98055 39.0766 5.70075 40.4346C6.87084 42.6975 7.66564 45.1409 8.30985 47.5967C8.77437 49.3884 9.09958 51.219 9.4244 53.0475C9.54489 53.7258 9.66533 54.4038 9.79282 55.0794C10.2641 57.577 10.832 60.0448 11.8546 62.3878C11.9113 62.4804 11.9674 62.5739 12.0236 62.6675C12.3997 63.2943 12.7789 63.9263 13.3804 64.3124C13.4193 64.3376 13.4563 64.3632 13.4923 64.3882C13.5585 64.434 13.6218 64.4779 13.6895 64.5137C13.7876 64.5656 13.8856 64.5949 13.9944 64.5786ZM81.2315 28.5221C81.3483 28.5942 81.4197 28.7192 81.4353 28.8559C81.6542 30.0358 81.871 31.2168 82.0878 32.3981C83.5176 40.1862 84.9504 47.9907 87.0037 55.6363C87.0674 55.8474 87.1308 56.0588 87.1943 56.2704C87.8463 58.4458 88.5046 60.6419 89.6336 62.6258C89.6644 62.6715 89.6955 62.7179 89.7269 62.7649C90.0024 63.1763 90.3055 63.6288 90.6722 63.9792C91.0783 64.3672 91.5571 64.6249 92.1565 64.562C92.9562 64.2034 93.6806 63.667 94.2127 62.9684C95.3455 61.4994 96.0324 59.7589 96.601 57.9985C97.3637 55.6222 97.9172 53.1703 98.3211 50.7028C98.8453 47.5552 99.4595 44.3907 100.404 41.3311L100.404 41.3295C100.468 41.1461 100.528 40.9599 100.589 40.7728C100.804 40.1035 101.023 39.4246 101.436 38.8355L101.227 38.6261L101.225 38.61C101.076 37.317 100.837 36.0236 100.597 34.7436C99.6239 29.3984 98.6358 24.0536 97.4981 18.7393C97.4981 18.7393 97.4981 18.7393 97.4981 18.7393C96.6448 14.7951 95.717 10.8524 94.4752 7.01553C94.4402 6.91982 94.4052 6.82402 94.3702 6.72816C93.8817 5.39043 93.3898 4.04335 92.6388 2.84018C92.639 2.84052 92.6393 2.84085 92.6395 2.84119L92.6779 2.81436L92.6382 2.83918C92.6384 2.83952 92.6386 2.83984 92.6388 2.84018C92.1474 2.13645 91.6015 1.45542 90.8391 1.05405C90.8427 1.05416 90.8463 1.05427 90.8499 1.05438L90.8513 1.00753L90.8296 1.04908C90.8328 1.05073 90.836 1.05239 90.8391 1.05405C90.5235 1.04443 90.2023 1.04775 89.8822 1.05106C89.7271 1.05267 89.5723 1.05427 89.4185 1.0544C89.3808 1.09235 89.3429 1.13027 89.305 1.16821C88.7897 1.68437 88.2704 2.20452 87.9283 2.85133C86.8265 4.8371 86.1627 7.03104 85.5029 9.21208C85.4741 9.30734 85.4453 9.40258 85.4165 9.49777C83.6535 15.7482 82.4124 22.1341 81.2315 28.5221ZM92.3242 64.5877C92.5784 64.6248 92.8341 64.6233 93.1005 64.6218C93.1538 64.6215 93.2075 64.6212 93.2617 64.6212C95.3035 64.6157 97.347 64.6182 99.3917 64.6207C102.965 64.6251 106.542 64.6294 110.119 64.5913C111.912 63.1844 112.953 61.032 113.639 58.887C114.147 57.3558 114.397 55.7743 114.581 54.1794C114.645 53.6192 114.701 53.0569 114.757 52.4943C114.861 51.457 114.964 50.419 115.12 49.3934C115.599 46.1717 116.169 42.8811 117.806 40.0118C118.829 38.2115 120.438 36.7747 122.317 35.9125C122.318 35.9123 122.318 35.9121 122.318 35.912L122.338 35.9546L122.316 35.9132C122.316 35.913 122.317 35.9127 122.317 35.9125C122.544 35.7923 122.784 35.6982 123.021 35.6053C123.069 35.5868 123.116 35.5683 123.163 35.5497C123.402 35.4547 123.636 35.3555 123.853 35.225C123.901 35.2277 123.949 35.2305 123.997 35.2335L124 35.1867L123.973 35.1479C123.934 35.1749 123.894 35.2005 123.853 35.225C122.845 35.1692 121.834 35.1785 120.823 35.1878C120.17 35.1939 119.517 35.1999 118.864 35.1884C118.864 35.1884 118.864 35.1884 118.864 35.1884H106.587L106.585 35.1883C105.179 35.1288 103.784 35.7991 102.849 36.8589L102.847 36.861C102.567 37.1427 102.353 37.4735 102.151 37.8189C102.093 37.9181 102.036 38.0187 101.979 38.1196C101.838 38.3687 101.696 38.6198 101.535 38.8568L101.535 38.8577C101.117 39.4411 100.9 40.1143 100.681 40.7938C100.62 40.9825 100.559 41.1717 100.493 41.3596C99.5509 44.4128 98.9375 47.572 98.4136 50.718C98.4136 50.7181 98.4136 50.718 98.4136 50.718C98.0091 53.1891 97.4546 55.6457 96.6902 58.0273C96.1209 59.7901 95.4302 61.543 94.2873 63.0252C94.2872 63.0252 94.2874 63.0251 94.2873 63.0252C93.7734 63.6999 93.085 64.2248 92.3242 64.5877Z" fill="white"/>
</svg>
